<svg width="32" height="32" viewBox="0 0 32 32" fill="none" xmlns="http://www.w3.org/2000/svg">
<circle cx="16" cy="16" r="16" fill="#56B5CF"/>
<path opacity="0.5" d="M18.8168 21C18.6862 20.6173 18.5508 20.2393 18.4108 19.866C18.2708 19.4927 18.1355 19.11 18.0048 18.718H13.9168C13.7862 19.11 13.6508 19.4973 13.5108 19.88C13.3802 20.2533 13.2495 20.6267 13.1188 21H11.2848C11.6488 19.964 11.9942 19.0073 12.3208 18.13C12.6475 17.2527 12.9648 16.422 13.2728 15.638C13.5902 14.854 13.9028 14.1073 14.2108 13.398C14.5188 12.6887 14.8362 11.9887 15.1628 11.298H16.8288C17.1555 11.9887 17.4728 12.6887 17.7808 13.398C18.0888 14.1073 18.3968 14.854 18.7048 15.638C19.0222 16.422 19.3442 17.2527 19.6708 18.13C20.0068 19.0073 20.3568 19.964 20.7208 21H18.8168ZM15.9608 13.174C15.7462 13.6687 15.4988 14.2707 15.2188 14.98C14.9482 15.6893 14.6635 16.4593 14.3648 17.29H17.5568C17.2582 16.4593 16.9688 15.6847 16.6888 14.966C16.4088 14.2473 16.1662 13.65 15.9608 13.174Z" fill="white"/>
</svg>
