<svg width="121" height="96" viewBox="0 0 121 96" fill="none" xmlns="http://www.w3.org/2000/svg">
<g clip-path="url(#clip0)">
<path d="M4.33264 27H24.1076V29.0444L11.1126 40.0216V42.0776H21.2826C22.8428 42.0776 24.1076 43.1004 24.1076 44.3621V67.431V69C24.1076 70.6569 22.7645 72 21.1076 72H8.15764C6.50079 72 5.15764 70.6569 5.15764 69V67.431V63.0905M35.4076 67.431V29.2845C35.4076 28.0228 36.6724 27 38.2326 27H52.3576C53.9178 27 55.1826 28.0228 55.1826 29.2845V67.431V69C55.1826 70.6569 53.8395 72 52.1826 72H38.4076C36.7508 72 35.4076 70.6569 35.4076 69V67.431ZM66.4826 67.431V29.2845C66.4826 28.0228 67.7474 27 69.3076 27H83.4326C84.9928 27 86.2576 28.0228 86.2576 29.2845V67.431V69C86.2576 70.6569 84.9145 72 83.2576 72H69.4826C67.8258 72 66.4826 70.6569 66.4826 69V67.431ZM97.5576 67.431V29.2845C97.5576 28.0228 98.8224 27 100.383 27H114.508C116.068 27 117.333 28.0228 117.333 29.2845V67.431V69C117.333 70.6569 115.989 72 114.333 72H100.558C98.9008 72 97.5576 70.6569 97.5576 69V67.431Z" stroke="url(#paint0_linear)" stroke-width="5" stroke-linecap="round" stroke-linejoin="round"/>
</g>
<defs>
<linearGradient id="paint0_linear" x1="56.9483" y1="27" x2="56.9483" y2="80" gradientUnits="userSpaceOnUse">
<stop stop-color="#142971"/>
<stop offset="1" stop-color="#0957B3"/>
</linearGradient>
<clipPath id="clip0">
<rect width="120" height="96" fill="white" transform="translate(0.666626)"/>
</clipPath>
</defs>
</svg>
