<svg width="120" height="96" viewBox="0 0 120 96" fill="none" xmlns="http://www.w3.org/2000/svg">
<g clip-path="url(#clip0)">
<path d="M22.7681 26.3613H5.59664V39.0672C5.59664 40.3203 6.89103 41.3361 8.48775 41.3361H18.8106C20.4074 41.3361 21.7018 42.3519 21.7018 43.605V66C21.7018 67.6569 20.3586 69 18.7018 69H7.99963C6.34278 69 4.99963 67.6569 4.99963 66V64.4622V60.3781M63.2437 26L63.2437 41.3361M63.2437 41.3361L63.2437 69M63.2437 41.3361H69.9171M69.9171 41.3361C76.3039 41.3361 81.4815 45.3994 81.4815 50.4118L81.4815 69M69.9171 41.3361C76.3039 41.3361 81.4815 37.2728 81.4815 32.2605L81.4815 26M105.478 30.4454V41.3361M105.478 41.3361V52.2269M105.478 41.3361H115.597M105.478 41.3361H95.3588M31.4414 64.4622V28.6303C31.4414 27.3772 32.7358 26.3613 34.3326 26.3613H48.7881C50.3848 26.3613 51.6792 27.3772 51.6792 28.6303V64.4622V66C51.6792 67.6569 50.3361 69 48.6792 69H34.4414C32.7846 69 31.4414 67.6569 31.4414 66V64.4622Z" stroke="url(#paint0_linear)" stroke-width="5" stroke-linecap="round" stroke-linejoin="round"/>
</g>
<defs>
<linearGradient id="paint0_linear" x1="57.7463" y1="25" x2="57.7463" y2="79" gradientUnits="userSpaceOnUse">
<stop stop-color="#142971"/>
<stop offset="1" stop-color="#0957B3"/>
</linearGradient>
<clipPath id="clip0">
<rect width="120" height="96" fill="white"/>
</clipPath>
</defs>
</svg>
