<svg width="80" height="80" viewBox="0 0 80 80" fill="none" xmlns="http://www.w3.org/2000/svg">
<path d="M19.2877 44.1386V44.8927C19.2877 46.5496 20.6308 47.8927 22.2877 47.8927H23.4302M19.2877 44.1386V43.3844C19.2877 41.7275 20.6308 40.3844 22.2877 40.3844H57.7124C59.3692 40.3844 60.7124 41.7275 60.7124 43.3844V44.1386M19.2877 44.1386H13.7644H12.8439H9.40003C7.74317 44.1386 6.40002 42.7954 6.40002 41.1386V6.20001C6.40002 4.54315 7.74317 3.20001 9.40002 3.20001H70.6C72.2569 3.20001 73.6 4.54316 73.6 6.20001V41.1386C73.6 42.7954 72.2569 44.1386 70.6 44.1386H67.1562H66.2356H60.7124M60.7124 44.1386V44.8927C60.7124 46.5496 59.3692 47.8927 57.7123 47.8927H56.1096M23.4302 47.8927H34.4767M23.4302 47.8927C23.4302 47.8927 24.735 50.5125 26.0791 55.0257M28.9534 76.8C29.0213 74.3086 28.9491 71.9233 28.7765 69.6671M56.1096 47.8927H45.063M56.1096 47.8927C56.1096 47.8927 54.9051 50.5125 53.6211 55.0257M50.5863 76.8C50.5863 74.3086 50.7065 71.9233 50.9113 69.6671M34.4767 47.8927C34.4767 47.8927 36.3178 59.9062 36.3178 76.8M34.4767 47.8927H45.063M45.063 47.8927C45.063 47.8927 43.2219 59.9062 43.2219 76.8M26.0791 55.0257H53.6211M26.0791 55.0257C26.6529 56.9521 27.2338 59.2234 27.7234 61.7833M53.6211 55.0257C53.0731 56.9521 52.5105 59.2234 52.0209 61.7833M27.7234 61.7833H52.0209M27.7234 61.7833C28.1808 64.1748 28.5586 66.818 28.7765 69.6671M52.0209 61.7833C51.5636 64.1748 51.1699 66.818 50.9113 69.6671M28.7765 69.6671H50.9113M56.5345 38.2445L40.9345 11.2245M56.5345 38.2445C61.0969 35.6104 63.8253 31.0198 64.272 26.1444M56.5345 38.2445C51.8331 40.9588 46.3062 40.9479 41.783 38.7019M40.9345 11.2245C45.3379 8.68221 50.4656 8.53065 54.8144 10.3671M40.9345 11.2245C40.126 11.6913 39.375 12.2196 38.6842 12.8M54.8144 10.3671C52.5252 13.456 52.1455 17.7322 54.1904 21.274C56.2931 24.9159 60.3501 26.7261 64.272 26.1444M54.8144 10.3671C57.8345 11.6425 60.479 13.8765 62.2445 16.9345C63.9183 19.8335 64.5558 23.0465 64.272 26.1444M41.783 38.7019C43.775 35.6593 44.0206 31.6318 42.078 28.2671C40.19 24.9971 36.7265 23.2039 33.2 23.2927M41.783 38.7019C39.4807 37.5587 37.4385 35.8366 35.8975 33.6M33.2 23.2927C32.9089 26.4005 33.545 29.6255 35.2245 32.5345C35.4365 32.9016 35.6611 33.2569 35.8975 33.6M33.2 23.2927C33.5747 19.293 35.4852 15.4875 38.6842 12.8M38.6842 12.8H23C21.3432 12.8 20 14.1432 20 15.8V30.6C20 32.2569 21.3432 33.6 23 33.6H35.8975" stroke="#1E337D" stroke-width="3" stroke-linecap="round" stroke-linejoin="round"/>
</svg>
