<svg width="121" height="96" viewBox="0 0 121 96" fill="none" xmlns="http://www.w3.org/2000/svg">
<path d="M46.3613 44.7325V41.7485H23.3334V76H46.3613V70.7186M46.3613 44.7325C47.9569 43.8676 51.976 41.0479 55.2879 36.6886C59.4278 31.2395 62.2739 24.493 62.2739 22.6766C62.2739 21.2236 62.2739 16.8816 62.2739 14.8922C62.1877 13.5948 62.869 11 66.2844 11C70.5537 11 71.3299 12.8164 72.2355 14.8922C73.1411 16.9681 74.8229 20.7305 74.9523 22.6766C75.0558 24.2335 73.7879 32.6667 73.1411 36.6886C78.4884 36.6886 89.804 36.6886 92.2879 36.6886C95.3928 36.6886 97.3334 38.7645 97.3334 41.7485C97.3334 44.7325 95.6516 47.1976 94.4872 47.1976M46.3613 44.7325V70.7186M94.4872 47.1976C94.9185 47.6301 95.7809 48.988 95.7809 50.9601C95.7809 52.9321 93.4523 54.982 92.2879 55.7605M94.4872 47.1976H87.8828M92.2879 55.7605C92.8916 56.0632 94.0991 57.1617 94.0991 59.1337C94.0991 61.1058 93.2798 63.4152 92.2879 64.3233M92.2879 55.7605H87.743M92.2879 64.3233C92.8916 65.0585 92.8054 67.9242 92.2879 70C91.7704 72.0758 87.8828 73.7944 85.8194 73.7944H55.8054C54.7704 73.7512 52.4676 73.5349 51.5362 73.016C50.6047 72.497 47.6982 70.9348 46.3613 70.7186M92.2879 64.3233H87.4398" stroke="url(#paint0_linear)" stroke-width="5" stroke-linecap="round" stroke-linejoin="round"/>
<defs>
<linearGradient id="paint0_linear" x1="57.7896" y1="11" x2="57.7896" y2="73.6786" gradientUnits="userSpaceOnUse">
<stop stop-color="#142971"/>
<stop offset="1" stop-color="#0957B3"/>
</linearGradient>
</defs>
</svg>
