<svg width="81" height="80" viewBox="0 0 81 80" fill="none" xmlns="http://www.w3.org/2000/svg">
<path d="M45.3 36H34.9M45.3 36C46.6217 38.2791 46.5973 39.7544 45.4598 42.4321C45.3647 42.6559 45.1432 42.8 44.9 42.8M45.3 36C56.4183 30.7188 59.8105 16.5528 60.8456 8.40002M34.9 36C34.0411 38.942 34.1457 40.3961 34.9 42.8M34.9 36C32.6154 35.0291 30.6569 33.6503 28.9782 32M34.9 42.8L32.597 45.103C31.0851 46.6149 32.1559 49.2 34.2941 49.2H45.5059C47.6441 49.2 48.7149 46.6149 47.2029 45.103L44.9 42.8M34.9 42.8H44.9M19.3353 8.40002C19.1643 6.99553 19.0605 5.76865 18.9975 4.79655C18.9117 3.47384 19.9745 2.40002 21.3 2.40002H58.9C60.2255 2.40002 61.2877 3.47388 61.1982 4.79633C61.1323 5.76801 61.024 6.99468 60.8456 8.40002M19.3353 8.40002H11.3261C11.1128 8.40002 10.9589 8.60449 11.018 8.80951L14.5774 21.1627C16.4266 27.5805 22.2993 32 28.9782 32M19.3353 8.40002C20.1408 15.0148 22.4362 25.5691 28.9782 32M60.8456 8.40002H68.0891C68.2962 8.40002 68.4466 8.59675 68.3925 8.79658L64.9267 21.5765C63.2583 27.7288 57.6745 32 51.3 32M55.3 7.20002C54.2333 13.2 50.74 26 45.3 29.2M30.3481 9.65265L31.2968 11.296M34.3046 16.5055L35.2533 18.1488M37.0488 11.4481L35.4055 12.3969M30.1959 15.4046L28.5526 16.3534M26.1 77.6H54.1C55.4255 77.6 56.5 76.5255 56.5 75.2V73.6C56.5 72.2745 55.4255 71.2 54.1 71.2H26.1C24.7745 71.2 23.7 72.2745 23.7 73.6V75.2C23.7 76.5255 24.7745 77.6 26.1 77.6ZM29.3 71.2H50.9C52.2255 71.2 53.3 70.1255 53.3 68.8V52C53.3 50.6745 52.2255 49.6 50.9 49.6H29.3C27.9745 49.6 26.9 50.6745 26.9 52V68.8C26.9 70.1255 27.9745 71.2 29.3 71.2ZM34.9 64.8H45.3C46.6255 64.8 47.7 63.7255 47.7 62.4V58.4C47.7 57.0745 46.6255 56 45.3 56H34.9C33.5745 56 32.5 57.0745 32.5 58.4V62.4C32.5 63.7255 33.5745 64.8 34.9 64.8Z" stroke="#1E337D" stroke-width="3" stroke-linecap="round" stroke-linejoin="round"/>
</svg>
