<svg width="120" height="40" viewBox="0 0 120 40" fill="none" xmlns="http://www.w3.org/2000/svg">
<path fill-rule="evenodd" clip-rule="evenodd" d="M105.03 0.406534C106.612 -0.158998 108.327 0.0357965 109.976 0.0200873C115.344 0.5542 119.839 5.65026 119.568 11.0479C119.82 16.4488 115.353 21.4443 110.017 22.0758C107.514 22.4842 104.986 21.8496 102.763 20.7091C100.85 21.0987 99.0907 22.1166 97.2025 22.6539C97.6848 20.8725 98.227 19.1099 98.7188 17.3316C98.9394 16.8603 98.5958 16.4142 98.4351 15.9932C96.84 12.9268 96.8778 9.11571 98.4288 6.04299C99.759 3.38814 102.186 1.29882 105.03 0.406534ZM106.051 2.43302C110.244 1.18257 115.067 3.5201 116.69 7.5605C118.629 11.8177 116.469 17.3128 112.16 19.1382C108.172 21.0641 102.946 19.4272 100.758 15.5942C98.6242 12.1444 99.2862 7.31858 102.278 4.57261C103.334 3.56094 104.648 2.83518 106.051 2.43302Z" fill="white"/>
<path fill-rule="evenodd" clip-rule="evenodd" d="M107.596 3.63635C110.143 3.29703 112.806 4.4218 114.351 6.46086C115.959 8.49991 116.315 11.4155 115.278 13.7876C114.086 16.6498 110.943 18.5412 107.845 18.2051C105.553 18.0165 103.403 16.6718 102.224 14.705C100.929 12.6189 100.809 9.86033 101.921 7.67047C102.974 5.48689 105.187 3.93482 107.596 3.63635ZM108.642 4.65116C110.433 4.9999 110.426 7.06409 110.42 8.49363C110.631 8.52505 111.057 8.58474 111.271 8.61302C111.517 7.7333 111.98 6.21265 113.194 6.61167C113.282 7.42855 112.516 8.03492 112.204 8.74498C113.232 9.15656 114.896 9.34507 114.77 10.8217C113.973 10.5892 113.213 10.2625 112.441 9.97029C112.832 11.1422 113.702 12.1036 114.029 13.2944C114.096 13.6997 114.014 14.5637 113.421 14.4129C112.702 12.7791 111.643 11.2867 111.287 9.51473C111.063 9.48645 110.612 9.4299 110.389 9.40162C110.3 11.5224 110.061 13.6368 109.635 15.7167C109.5 16.2508 109.386 16.8195 109.033 17.2594C108.576 17.6112 107.832 16.8855 108.135 16.4142C108.938 14.0955 109.626 11.6732 109.509 9.19426C109.244 9.20054 108.715 9.21625 108.45 9.22568C107.678 11.7737 105.827 13.9918 103.573 15.3774C103.633 14.8559 103.573 14.2306 104.027 13.8567C105.326 12.5058 106.694 11.1202 107.331 9.31679C105.572 9.4079 104.018 10.2499 102.42 10.8877C102.461 10.6332 102.546 10.1305 102.587 9.87604C104.037 8.8518 105.856 8.65072 107.558 8.34282C107.05 6.96984 105.566 6.64623 104.273 6.52055C104.894 5.55601 106.272 5.86705 107.085 6.40431C107.851 6.85359 108.21 7.68618 108.538 8.46535C108.875 8.43079 109.213 8.39309 109.553 8.35539C109.386 7.08923 108.995 5.87334 108.642 4.65116Z" fill="white"/>
<path fill-rule="evenodd" clip-rule="evenodd" d="M35.9913 18.092C36.9528 18.1108 37.9174 18.1202 38.8788 18.1548C38.8347 23.0089 38.9103 27.8631 38.8441 32.7141C38.8725 33.6943 38.51 34.86 37.4288 35.1113C35.5878 35.4098 33.7059 35.1679 31.8492 35.2558C30.7932 35.2715 29.3526 35.2778 28.8766 34.1216C28.4573 32.7549 28.6654 31.3002 28.6213 29.8927C28.6717 28.1081 28.4889 26.3047 28.7505 24.5296C28.864 23.6561 29.7119 23.078 30.5505 23.0341C32.3473 22.9241 34.1504 23.0246 35.9472 22.9932C35.9629 21.3595 35.9125 19.7257 35.9913 18.092ZM31.5592 25.4753C33.0219 25.3936 34.4877 25.4281 35.9503 25.4344C35.9409 27.8788 35.9755 30.3231 35.9283 32.7675C34.4751 32.8397 33.0187 32.8366 31.5655 32.7706C31.5182 30.3388 31.5245 27.9071 31.5592 25.4753Z" fill="white"/>
<path d="M0.543795 18.8083C1.09229 18.1265 2.04429 18.1265 2.84497 18.1171C5.10201 18.1297 7.3622 18.1171 9.61924 18.1297C9.6287 19.0188 9.6287 19.9079 9.61609 20.7971C7.58601 20.8316 5.54963 20.7122 3.52271 20.8473C3.4376 20.9227 3.27053 21.0767 3.18542 21.1552C2.96791 22.4874 3.12552 23.8478 3.09715 25.1925C5.26908 25.1925 7.43786 25.1988 9.60979 25.1862C9.6287 26.0754 9.63185 26.9645 9.62239 27.8536C7.47253 27.8568 5.32267 27.8945 3.16965 27.8285C2.99313 30.2854 3.10976 32.7549 3.10661 35.2181C2.07581 35.2527 1.04501 35.2527 0.0142103 35.2433C0.0079057 30.5336 -0.00785575 25.8209 0.00475342 21.1113C0.0362763 20.3289 -0.0173126 19.4335 0.543795 18.8083Z" fill="white"/>
<path d="M11.8006 18.4156C12.7022 17.6709 14.2941 18.3213 14.2909 19.5278C14.4485 20.6714 13.071 21.5888 12.0654 21.0296C11.063 20.5709 10.9054 19.0659 11.8006 18.4156Z" fill="white"/>
<path d="M42.6931 19.2953C43.0209 18.3182 44.1747 18.0888 45.0888 18.1202C47.8219 18.1297 50.558 18.1108 53.2911 18.1391C53.2879 19.0219 53.2879 19.9079 53.2879 20.7939C50.7882 20.8725 48.2632 20.6368 45.776 20.9102C45.3473 22.1418 45.5932 23.5682 45.6216 24.8689C45.7193 24.938 45.9116 25.0763 46.0093 25.1454C47.9259 25.3182 49.8582 25.048 51.7717 25.2742C52.7048 25.3496 53.3888 26.1916 53.4613 27.0933C53.6032 28.658 53.4865 30.232 53.5307 31.7998C53.5086 32.7486 53.6126 33.842 52.938 34.6086C52.2918 35.2652 51.2957 35.2244 50.4446 35.2527C47.8755 35.2464 45.3063 35.2433 42.7372 35.2495C42.7278 34.3604 42.7278 33.4744 42.7309 32.5853C45.2717 32.4344 47.866 32.8523 50.3721 32.3622C50.4887 30.9326 50.4919 29.4937 50.3595 28.0641C48.2285 27.5489 46.003 28.1333 43.8626 27.7343C42.463 27.3824 42.4314 25.7298 42.4157 24.5673C42.4756 22.8141 42.2108 21.0044 42.6931 19.2953Z" fill="white"/>
<path d="M88.8332 19.5341C89.7852 19.5309 90.7372 19.5341 91.6892 19.5655C91.6576 20.706 91.6608 21.8496 91.6734 22.9932C92.8996 22.9932 94.1259 22.9964 95.3521 22.9869C95.2828 23.7693 95.598 24.7244 95.2008 25.3999C94.025 25.4784 92.8492 25.4062 91.6734 25.4313C91.6734 27.8756 91.6324 30.32 91.6986 32.7643C92.9343 32.8303 94.1763 32.7801 95.4089 32.8774C95.3773 33.666 95.3616 34.4578 95.3521 35.2495C93.7066 35.2024 92.0485 35.3469 90.4093 35.1679C89.388 35.0547 88.7386 34.0179 88.8332 33.0408C88.8237 28.5386 88.8269 24.0363 88.8332 19.5341Z" fill="white"/>
<path d="M11.3656 22.9932C12.3081 22.9932 13.2538 22.9932 14.1995 22.9964C14.1995 27.0776 14.1995 31.1589 14.1995 35.2433C13.2538 35.2464 12.3081 35.2464 11.3625 35.2464C11.3625 31.162 11.3593 27.0776 11.3656 22.9932Z" fill="white"/>
<path d="M17.7931 23.1692C18.9784 22.8456 20.2298 23.0372 21.4466 22.9932C22.6697 23.0372 23.9212 22.855 25.1222 23.1472C25.9954 23.3954 26.4556 24.3128 26.4115 25.1705C26.4367 28.5197 26.3831 31.8721 26.4336 35.2213C25.4847 35.2464 24.5359 35.2527 23.587 35.2495C23.5524 32.0072 23.6028 28.7616 23.5587 25.5161C22.1906 25.3684 20.813 25.4219 19.4418 25.4533C19.3693 28.7019 19.3882 31.9537 19.4323 35.2024C18.4456 35.259 17.459 35.259 16.4692 35.2275C16.5164 31.9914 16.4534 28.7554 16.5007 25.5193C16.507 24.5893 16.7655 23.4551 17.7931 23.1692Z" fill="white"/>
<path fill-rule="evenodd" clip-rule="evenodd" d="M57.1621 23.1315C58.5838 22.8456 60.0496 23.0498 61.4902 22.9932C62.6408 23.0372 63.8576 22.8267 64.9514 23.2666C65.998 23.8132 65.9601 25.136 65.9822 26.1476C65.9507 28.4412 66.0263 30.7347 65.9475 33.0283C65.957 33.974 65.4053 35.0642 64.3651 35.1584C62.4674 35.3626 60.5508 35.1898 58.6468 35.2495C58.6468 36.833 58.6531 38.4165 58.6374 40C57.6948 39.9937 56.7523 39.9686 55.8129 39.9466C55.8129 35.0233 55.8003 30.0969 55.8161 25.1705C55.7688 24.2908 56.2511 23.3451 57.1621 23.1315ZM58.6784 25.4847C60.1442 25.3936 61.6131 25.403 63.0821 25.4753C63.1798 27.9008 63.1735 30.3357 63.0853 32.7612C61.6068 32.8492 60.1284 32.8115 58.65 32.8052C58.6563 30.3671 58.6122 27.9228 58.6784 25.4847Z" fill="white"/>
<path fill-rule="evenodd" clip-rule="evenodd" d="M69.5033 23.1629C71.4262 22.7921 73.4185 23.0875 75.3729 22.9838C76.4289 22.9272 77.8758 23.0781 78.2194 24.2908C78.6071 26.0282 78.3581 27.8254 78.4243 29.5911C78.3613 31.1306 78.6292 32.7361 78.1154 34.219C77.6678 35.1207 76.5645 35.281 75.6629 35.2527C73.8629 35.2275 72.063 35.2904 70.2662 35.2213C69.2448 35.2307 68.2676 34.4609 68.2613 33.3958C68.0848 30.9829 68.2298 28.5574 68.1825 26.1413C68.1825 25.048 68.2203 23.5336 69.5033 23.1629ZM71.1394 25.4501C72.5831 25.4156 74.03 25.4093 75.4738 25.4564C75.5368 27.8976 75.5305 30.342 75.4769 32.78C74.0332 32.8303 72.5894 32.8209 71.1457 32.7926C71.0668 30.3483 71.0763 27.8976 71.1394 25.4501Z" fill="white"/>
<path d="M80.7539 24.2719C80.9808 23.4959 81.7973 23.0466 82.5759 23.0246C84.1583 22.9367 85.7502 23.0184 87.3358 22.9932C87.339 23.8132 87.3295 24.6333 87.298 25.4533C86.0371 25.4124 84.773 25.4156 83.5121 25.4533C83.4333 28.7082 83.4648 31.9632 83.4932 35.2181C82.5191 35.2495 81.5451 35.2527 80.571 35.2527C80.5332 32.425 80.571 29.5974 80.549 26.7697C80.5584 25.9371 80.5301 25.0857 80.7539 24.2719Z" fill="white"/>
</svg>
