<svg width="81" height="80" viewBox="0 0 81 80" fill="none" xmlns="http://www.w3.org/2000/svg">
<g clip-path="url(#clip0)">
<path d="M70.8883 73.0905L60.6172 77.8263L52.017 64.5762L43.4169 51.3261C38.0954 53.7797 32.1142 53.0266 27.6432 49.8694C25.4419 48.3149 23.6066 46.1775 22.3966 43.5531C18.729 35.5986 22.1937 26.1818 30.1353 22.5201C38.0768 18.8585 47.4879 22.3386 51.1556 30.2931L55.5195 39.7579M70.8883 73.0905L75.3103 61.0717L59.9416 27.7391M70.8883 73.0905L55.5195 39.7579M22.831 29.3884L27.2564 17.3605C28.5566 14.9442 30.4908 12.8487 32.9569 11.352M55.5195 39.7579L59.9416 27.7391M59.9416 27.7391L55.5776 18.2743C53.0807 12.8586 47.9214 9.51699 42.3763 9.09107M32.9569 11.352L31.6775 8.57711C30.579 6.19464 31.6198 3.37276 34.0023 2.27426V2.27426C36.3848 1.17577 39.2066 2.21664 40.3051 4.59911L41.8263 7.89825L42.3763 9.09107M32.9569 11.352L35.0011 15.7856C39.1095 13.8914 42.9341 14.6229 45.3364 15.5113L42.3763 9.09107M40.7606 45.5649C35.9956 47.7619 30.349 45.6738 28.1484 40.9011C25.9478 36.1284 28.0267 30.4783 32.7916 28.2813C37.5565 26.0843 43.2032 28.1724 45.4038 32.9451C47.6043 37.7178 45.5255 43.3679 40.7606 45.5649ZM35.6677 8.47023C-16.991 53.2438 8.74707 92.5006 18.7206 68.6929C24.954 53.813 -9.85957 19.3093 35.6677 8.47023Z" stroke="#1E337D" stroke-width="3" stroke-linecap="round" stroke-linejoin="round"/>
</g>
<defs>
<clipPath id="clip0">
<rect width="80" height="80" fill="white" transform="translate(0.5)"/>
</clipPath>
</defs>
</svg>
