<svg width="80" height="80" viewBox="0 0 80 80" fill="none" xmlns="http://www.w3.org/2000/svg">
<path d="M66.5182 47.3636C66.5182 55.2713 63.3552 62.4304 58.2413 67.6126M66.5182 47.3636H62.5381M66.5182 47.3636C66.5182 40.7999 64.339 34.7519 60.6737 29.9222M38.2591 76C30.4556 76 23.3908 72.7948 18.2769 67.6126M38.2591 76C46.0626 76 53.1274 72.7948 58.2413 67.6126M38.2591 76V71.9667M10 47.3636C10 39.4559 13.163 32.2968 18.2769 27.1147M10 47.3636C10 55.2713 13.163 62.4304 18.2769 67.6126M10 47.3636H13.9802M38.2591 18.7273V22.7606M38.2591 18.7273C37.167 18.7273 36.0893 18.7901 35.0295 18.9122M38.2591 18.7273C39.3512 18.7273 40.4289 18.7901 41.4887 18.9122M58.2413 27.1147L55.4269 29.9666M58.2413 27.1147C57.5852 26.4498 56.8969 25.8174 56.1791 25.2202M58.2413 27.1147C59.1105 27.9954 59.9232 28.9333 60.6737 29.9222M18.2769 27.1147L21.0913 29.9666M18.2769 27.1147C22.6751 22.6578 28.5163 19.6631 35.0295 18.9122M18.2769 67.6126L21.0913 64.7606M58.2413 67.6126L55.4269 64.7606M44.3146 32.1895C50.2326 34.617 54.4072 40.4963 54.4072 47.3636C54.4072 52.251 52.2928 56.638 48.9403 59.6364M32.2036 32.1895C26.2857 34.617 22.111 40.4963 22.111 47.3636C22.111 52.251 24.2255 56.638 27.5779 59.6364M43.9109 65.3636C43.9109 62.2005 41.3805 59.6364 38.2591 59.6364C35.1377 59.6364 32.6073 62.2005 32.6073 65.3636M38.2591 65.3636L37.6641 64.7606M35.0295 18.9122V10.1364M35.0295 10.1364H41.4887M35.0295 10.1364H34.6073C33.5027 10.1364 32.6073 9.24093 32.6073 8.13636V6C32.6073 4.89543 33.5027 4 34.6073 4H42.3146C43.4192 4 44.3146 4.89543 44.3146 6V8.13637C44.3146 9.24093 43.4192 10.1364 42.3146 10.1364H41.4887M41.4887 18.9122V10.1364M41.4887 18.9122C47.0302 19.5511 52.0853 21.8142 56.1791 25.2202M59.8214 21.5292L64.3888 26.1576M59.8214 21.5292L59.2505 20.9507C58.6198 20.3117 58.6198 19.2756 59.2505 18.6365L61.2487 16.6116C61.8793 15.9726 62.9018 15.9726 63.5324 16.6116L69.527 22.6863C70.1577 23.3254 70.1577 24.3614 69.527 25.0005L67.5288 27.0254C66.8982 27.6644 65.8757 27.6644 65.2451 27.0254L64.3888 26.1576M59.8214 21.5292L56.1791 25.2202M64.3888 26.1576L60.6737 29.9222M38.2591 27.1147L35.0295 42.8636L38.2591 47.3636L41.4887 42.8636L38.2591 27.1147Z" stroke="#1E337D" stroke-width="3" stroke-linecap="round" stroke-linejoin="round"/>
</svg>
